osim_states
version=1
nRows=4
nColumns=185
inDegrees=yes

# SIMM Motion File Header:
name osim_states
datacolumns 185
datarows 4
otherdata 1
range 0.02965424 0.03059068
endheader
time	platform_rx	platform_ry	platform_rz	platform_ty	pelvis_tilt	pelvis_list	pelvis_rotation	pelvis_tx	pelvis_ty	pelvis_tz	hip_flexion_r	hip_adduction_r	hip_rotation_r	knee_angle_r	patella_r_constrained_knee_angle	ankle_angle_r	subtalar_angle_r	mtp_angle_r	hip_flexion_l	hip_adduction_l	hip_rotation_l	knee_angle_l	patella_l_constrained_knee_angle	ankle_angle_l	subtalar_angle_l	mtp_angle_l	lumbar_extension	lumbar_bending	lumbar_rotation	arm_flex_r	arm_add_r	arm_rot_r	elbow_flex_r	pro_sup_r	wrist_flex_r	wrist_dev_r	arm_flex_l	arm_add_l	arm_rot_l	elbow_flex_l	pro_sup_l	wrist_flex_l	wrist_dev_l	platform_rx_u	platform_ry_u	platform_rz_u	platform_ty_u	pelvis_tilt_u	pelvis_list_u	pelvis_rotation_u	pelvis_tx_u	pelvis_ty_u	pelvis_tz_u	hip_flexion_r_u	hip_adduction_r_u	hip_rotation_r_u	knee_angle_r_u	patella_r_constrained_knee_angle_u	ankle_angle_r_u	subtalar_angle_r_u	mtp_angle_r_u	hip_flexion_l_u	hip_adduction_l_u	hip_rotation_l_u	knee_angle_l_u	patella_l_constrained_knee_angle_u	ankle_angle_l_u	subtalar_angle_l_u	mtp_angle_l_u	lumbar_extension_u	lumbar_bending_u	lumbar_rotation_u	arm_flex_r_u	arm_add_r_u	arm_rot_r_u	elbow_flex_r_u	pro_sup_r_u	wrist_flex_r_u	wrist_dev_r_u	arm_flex_l_u	arm_add_l_u	arm_rot_l_u	elbow_flex_l_u	pro_sup_l_u	wrist_flex_l_u	wrist_dev_l_u	glut_med1_r.activation	glut_med1_r.fiber_length	glut_med2_r.activation	glut_med2_r.fiber_length	glut_med3_r.activation	glut_med3_r.fiber_length	glut_min1_r.activation	glut_min1_r.fiber_length	glut_min2_r.activation	glut_min2_r.fiber_length	glut_min3_r.activation	glut_min3_r.fiber_length	semimem_r.activation	semimem_r.fiber_length	semiten_r.activation	semiten_r.fiber_length	bifemlh_r.activation	bifemlh_r.fiber_length	bifemsh_r.activation	bifemsh_r.fiber_length	sar_r.activation	sar_r.fiber_length	add_long_r.activation	add_long_r.fiber_length	add_brev_r.activation	add_brev_r.fiber_length	add_mag1_r.activation	add_mag1_r.fiber_length	add_mag2_r.activation	add_mag2_r.fiber_length	add_mag3_r.activation	add_mag3_r.fiber_length	tfl_r.activation	tfl_r.fiber_length	pect_r.activation	pect_r.fiber_length	grac_r.activation	grac_r.fiber_length	glut_max1_r.activation	glut_max1_r.fiber_length	glut_max2_r.activation	glut_max2_r.fiber_length	glut_max3_r.activation	glut_max3_r.fiber_length	iliacus_r.activation	iliacus_r.fiber_length	psoas_r.activation	psoas_r.fiber_length	quad_fem_r.activation	quad_fem_r.fiber_length	gem_r.activation	gem_r.fiber_length	peri_r.activation	peri_r.fiber_length	rect_fem_r.activation	rect_fem_r.fiber_length	vas_med_r.activation	vas_med_r.fiber_length	vas_int_r.activation	vas_int_r.fiber_length	vas_lat_r.activation	vas_lat_r.fiber_length	med_gas_r.activation	med_gas_r.fiber_length	lat_gas_r.activation	lat_gas_r.fiber_length	soleus_r.activation	soleus_r.fiber_length	tib_post_r.activation	tib_post_r.fiber_length	flex_dig_r.activation	flex_dig_r.fiber_length	flex_hal_r.activation	flex_hal_r.fiber_length	tib_ant_r.activation	tib_ant_r.fiber_length	per_brev_r.activation	per_brev_r.fiber_length	per_long_r.activation	per_long_r.fiber_length	per_tert_r.activation	per_tert_r.fiber_length	ext_dig_r.activation	ext_dig_r.fiber_length	ext_hal_r.activation	ext_hal_r.fiber_length	ercspn_r.activation	ercspn_r.fiber_length	ercspn_l.activation	ercspn_l.fiber_length	intobl_r.activation	intobl_r.fiber_length	intobl_l.activation	intobl_l.fiber_length	extobl_r.activation	extobl_r.fiber_length	extobl_l.activation	extobl_l.fiber_length
      0.02965424	     30.00000000	     -0.00000000	      0.00000000	     -0.00000000	    -14.25225292	      6.76244331	     17.37051628	     -0.42634608	      1.00547464	      0.33859881	     34.05089879	    -10.04643272	     -6.73990255	    -30.96352357	    -30.96352357	     14.00253056	      2.37034366	      0.00001318	     52.13915936	     -0.00000000	     -9.99811353	   -101.98648811	   -101.98648811	      6.49999992	      0.00000000	     -0.00000000	    -10.87432672	     -7.55743168	    -12.32198923	      0.00000000	     -8.91003344	     -0.00000000	     72.06682857	     46.23690339	     -0.00000000	      4.87402477	      0.00000000	     -8.91003344	     -0.00000000	     72.06682857	     46.23690339	     -0.00000000	      4.87402477	     -0.00000000	     -0.00000000	      0.00000000	     -0.00000000	    -18.06083957	    -49.98554743	    -19.11459920	      0.43884574	     -2.73398113	      0.34947239	    122.89681543	    123.13314330	    155.79493021	   -432.57910668	   -432.57910668	   1424.57487075	    -14.09564784	      0.00000000	     -0.00000000	     -0.00000000	      0.00000000	     -0.00000000	      0.00000000	      0.00000000	      0.00000000	     -0.00000000	     -6.76175781	     49.66872775	     32.79252118	      0.00000000	      0.00000000	      0.00000000	      0.00000000	     -0.00000000	     -0.00000000	      0.00000000	      0.00000000	      0.00000000	     -0.00000000	      0.00000000	     -0.00000000	     -0.00000000	      0.00000000	      0.03633170	      0.04974824	      0.07985557	      0.08659231	      0.20700258	      0.06780631	      0.03633170	      0.06947007	      0.03633170	      0.05840619	      0.11823802	      0.03660308	      0.20379325	      0.07566377	      0.46501827	      0.24218832	      0.34400484	      0.11849914	      0.23758824	      0.17078615	      0.03633381	      0.45832907	      0.03634238	      0.11081186	      0.03633170	      0.13250004	      0.03633408	      0.07972422	      0.03642237	      0.10790169	      0.04458868	      0.13715365	      0.03656324	      0.08756826	      0.03636105	      0.06933497	      0.03633170	      0.35017134	      0.08478314	      0.09650057	      0.09513474	      0.11049514	      0.08610171	      0.13943499	      0.03633188	      0.08770899	      0.03633950	      0.08066460	      0.24490747	      0.05076850	      0.42836963	      0.02094455	      0.35722512	      0.01882556	      0.19793668	      0.10355284	      0.18902932	      0.07769175	      0.23151387	      0.07922245	      0.19570612	      0.07323140	      0.30992272	      0.05688786	      0.31714411	      0.06120573	      0.39917141	      0.05328736	      0.01000000	      0.03781924	      0.01000000	      0.03531674	      0.01000000	      0.04448796	      0.22841878	      0.09660923	      0.01000000	      0.05515986	      0.01000000	      0.05612167	      0.01000000	      0.08408993	      0.01000000	      0.10645501	      0.01000000	      0.11521005	      0.13465425	      0.13515493	      0.04540830	      0.12107476	      0.03633170	      0.09532830	      0.05561913	      0.08493815	      0.16196359	      0.13651934	      0.04375639	      0.10534676
      0.02991345	     30.00000000	     -0.00000000	      0.00000000	     -0.00000000	    -14.25693893	      6.74948517	     17.36553508	     -0.42623231	      1.00476561	      0.33868941	     34.08274054	    -10.01448320	     -6.69957232	    -31.07553433	    -31.07553433	     14.37112284	      2.36654774	      0.00001318	     52.13915936	     -0.00000000	     -9.99811353	   -101.98648811	   -101.98648811	      6.49999992	      0.00000000	     -0.00000000	    -10.87606871	     -7.54455775	    -12.31344482	      0.00000000	     -8.91003344	     -0.00000000	     72.06682857	     46.23690339	     -0.00000000	      4.87402477	      0.00000000	     -8.91003344	     -0.00000000	     72.06682857	     46.23690339	     -0.00000000	      4.87402477	     -0.00000000	     -0.00000000	      0.00000000	     -0.00000000	    -18.09449791	    -49.99402504	    -19.31843047	      0.43898366	     -2.73665255	      0.34956449	    122.78125382	    123.37587168	    155.37684696	   -431.65042633	   -431.65042633	   1419.31314959	    -15.19244390	      0.00000000	     -0.00000000	     -0.00000000	      0.00000000	     -0.00000000	      0.00000000	      0.00000000	      0.00000000	     -0.00000000	     -6.67878959	     49.66114078	     33.13271208	      0.00000000	      0.00000000	      0.00000000	      0.00000000	     -0.00000000	     -0.00000000	      0.00000000	      0.00000000	      0.00000000	     -0.00000000	      0.00000000	     -0.00000000	     -0.00000000	      0.00000000	      0.03623726	      0.04973873	      0.08008335	      0.08661162	      0.20730073	      0.06784392	      0.03623726	      0.06945798	      0.03623726	      0.05840592	      0.11882240	      0.03661701	      0.20360047	      0.07560641	      0.46515118	      0.24211035	      0.34393395	      0.11844792	      0.23751854	      0.17072372	      0.03623936	      0.45829619	      0.03624790	      0.11075789	      0.03623726	      0.13246847	      0.03623963	      0.07971060	      0.03632759	      0.10789520	      0.04454087	      0.13716568	      0.03647771	      0.08757169	      0.03626650	      0.06930523	      0.03623726	      0.35008573	      0.08491154	      0.09653434	      0.09522910	      0.11053443	      0.08608455	      0.13946733	      0.03623744	      0.08767533	      0.03624503	      0.08063253	      0.24479552	      0.05080154	      0.42872525	      0.02097384	      0.35847673	      0.01885386	      0.19865988	      0.10362397	      0.18979946	      0.07777459	      0.23242835	      0.07930645	      0.19651464	      0.07331571	      0.31338567	      0.05706846	      0.32065596	      0.06139931	      0.40375807	      0.05349923	      0.01000000	      0.03787144	      0.01000000	      0.03538003	      0.01000000	      0.04458334	      0.22829068	      0.09649426	      0.01000000	      0.05518071	      0.01000000	      0.05616324	      0.01000000	      0.08403337	      0.01000000	      0.10638229	      0.01000000	      0.11513102	      0.13465156	      0.13514815	      0.04537474	      0.12108734	      0.03623726	      0.09530941	      0.05559725	      0.08495253	      0.16193742	      0.13649964	      0.04375322	      0.10536155
      0.03033743	     30.00000000	     -0.00000000	      0.00000000	     -0.00000000	    -14.26462221	      6.72828611	     17.35727352	     -0.42604614	      1.00360441	      0.33883765	     34.13475734	     -9.96209132	     -6.63384048	    -31.25822312	    -31.25822312	     14.97101287	      2.35972523	      0.00001318	     52.13915936	     -0.00000000	     -9.99811353	   -101.98648811	   -101.98648811	      6.49999992	      0.00000000	     -0.00000000	    -10.87887170	     -7.52350540	    -12.29927920	      0.00000000	     -8.91003344	     -0.00000000	     72.06682857	     46.23690339	     -0.00000000	      4.87402477	      0.00000000	     -8.91003344	     -0.00000000	     72.06682857	     46.23690339	     -0.00000000	      4.87402477	     -0.00000000	     -0.00000000	      0.00000000	     -0.00000000	    -18.14974076	    -50.00794114	    -19.65421191	      0.43920326	     -2.74101388	      0.34971646	    122.59784367	    123.77107588	    154.70028004	   -430.14755716	   -430.14755716	   1410.49234640	    -16.99288085	      0.00000000	     -0.00000000	     -0.00000000	      0.00000000	     -0.00000000	      0.00000000	      0.00000000	      0.00000000	     -0.00000000	     -6.54385157	     49.64878277	     33.69086772	      0.00000000	     -0.00000000	      0.00000000	      0.00000000	     -0.00000000	     -0.00000000	      0.00000000	      0.00000000	      0.00000000	     -0.00000000	      0.00000000	     -0.00000000	     -0.00000000	      0.00000000	      0.03608358	      0.04972336	      0.08045362	      0.08664331	      0.20778277	      0.06790550	      0.03608358	      0.06943836	      0.03608358	      0.05840562	      0.11977155	      0.03663990	      0.20327804	      0.07551277	      0.46534150	      0.24198328	      0.34381123	      0.11836462	      0.23740030	      0.17062185	      0.03608567	      0.45824249	      0.03609415	      0.11066948	      0.03608358	      0.13241666	      0.03608594	      0.07968810	      0.03617334	      0.10788435	      0.04446213	      0.13718528	      0.03633903	      0.08757734	      0.03611264	      0.06925647	      0.03608358	      0.34994572	      0.08511845	      0.09658965	      0.09537856	      0.11059872	      0.08605492	      0.13952006	      0.03608376	      0.08762030	      0.03609130	      0.08058008	      0.24450388	      0.05085270	      0.42926899	      0.02102168	      0.36048295	      0.01890022	      0.19982945	      0.10373996	      0.19105450	      0.07790957	      0.23391186	      0.07944332	      0.19783218	      0.07345304	      0.31902675	      0.05736100	      0.32637436	      0.06171279	      0.41123544	      0.05384303	      0.01000000	      0.03795595	      0.01000000	      0.03548255	      0.01000000	      0.04473800	      0.22807506	      0.09630626	      0.01000000	      0.05521390	      0.01000000	      0.05623014	      0.01000000	      0.08394088	      0.01000000	      0.10626333	      0.01000000	      0.11500176	      0.13464654	      0.13513698	      0.04532001	      0.12110793	      0.03608358	      0.09527865	      0.05556037	      0.08497595	      0.16189286	      0.13646737	      0.04374948	      0.10538587
      0.03059068	     30.00000000	     -0.00000000	      0.00000000	     -0.00000000	    -14.26922282	      6.71562055	     17.35227054	     -0.42593490	      1.00290992	      0.33892623	     34.16579172	     -9.93071654	     -6.59471337	    -31.36704531	    -31.36704531	     15.32753804	      2.35528503	      0.00001318	     52.13915936	     -0.00000000	     -9.99811353	   -101.98648811	   -101.98648811	      6.49999992	      0.00000000	     -0.00000000	    -10.88051877	     -7.51093278	    -12.29070466	      0.00000000	     -8.91003344	     -0.00000000	     72.06682857	     46.23690339	     -0.00000000	      4.87402477	      0.00000000	     -8.91003344	     -0.00000000	     72.06682857	     46.23690339	     -0.00000000	      4.87402477	     -0.00000000	     -0.00000000	      0.00000000	     -0.00000000	    -18.18285338	    -50.01628252	    -19.85621810	      0.43933087	     -2.74361423	      0.34980806	    122.49168127	    124.00612547	    154.30046801	   -429.25968412	   -429.25968412	   1405.09188699	    -18.07369607	      0.00000000	     -0.00000000	     -0.00000000	      0.00000000	     -0.00000000	      0.00000000	      0.00000000	      0.00000000	     -0.00000000	     -6.46370820	     49.64142716	     34.02531319	      0.00000000	     -0.00000000	      0.00000000	      0.00000000	     -0.00000000	     -0.00000000	      0.00000000	      0.00000000	      0.00000000	     -0.00000000	      0.00000000	     -0.00000000	     -0.00000000	      0.00000000	      0.03599224	      0.04971428	      0.08067319	      0.08666230	      0.20805928	      0.06794229	      0.03599224	      0.06942672	      0.03599224	      0.05840551	      0.12033417	      0.03665365	      0.20308126	      0.07545696	      0.46543962	      0.24190763	      0.34373398	      0.11831515	      0.23732718	      0.17056115	      0.03599432	      0.45821045	      0.03600278	      0.11061657	      0.03599224	      0.13238562	      0.03599459	      0.07967453	      0.03608166	      0.10787774	      0.04441480	      0.13719692	      0.03625690	      0.08758074	      0.03602119	      0.06922729	      0.03599224	      0.34986210	      0.08524026	      0.09662273	      0.09546509	      0.11063715	      0.08603633	      0.13955145	      0.03599242	      0.08758744	      0.03599994	      0.08054875	      0.24437849	      0.05088450	      0.42957268	      0.02105022	      0.36165739	      0.01892796	      0.20052040	      0.10380904	      0.19180085	      0.07798987	      0.23479060	      0.07952476	      0.19861595	      0.07353473	      0.32238226	      0.05753403	      0.32977455	      0.06189816	      0.41568672	      0.05404664	      0.01000000	      0.03800592	      0.01000000	      0.03554319	      0.01000000	      0.04482958	      0.22794269	      0.09619400	      0.01000000	      0.05523319	      0.01000000	      0.05626946	      0.01000000	      0.08388563	      0.01000000	      0.10619228	      0.01000000	      0.11492455	      0.13464316	      0.13513027	      0.04528742	      0.12112022	      0.03599224	      0.09526036	      0.05553768	      0.08498988	      0.16186520	      0.13644805	      0.04374812	      0.10540048
